<svg width="352" height="512" viewBox="0 0 352 512" fill="none" xmlns="http://www.w3.org/2000/svg">
  <path d="M96.1 454.3C96.1 460.597 97.916 466.74 101.384 471.99L118.524 497.68C123.774 505.555 135.694 511.96 145.164 511.96H206.834C216.272 511.96 228.194 505.559 233.444 497.68L250.524 472C253.462 467.562 255.872 459.63 255.872 454.3L256 415.1H96L96.1 454.3ZM175.4 0.0131949C73.44 0.325695 0 82.97 0 175.1C0 219.48 16.44 259.94 43.56 290.9C60.09 309.74 85.9 349.13 95.78 382.35C95.8113 382.6 95.8738 382.867 95.905 383.132H256.105C256.136 382.867 256.199 382.616 256.23 382.35C266.105 349.13 291.92 309.74 308.45 290.9C335.6 260.8 352 220.4 352 175.1C352 78.61 272.9 -0.283705 175.4 0.0131949ZM176 96.01C131.87 96.01 96 131.9 96 175.11C96 184.8 88.8 192 80 192C71.2 192 64 184.8 64 176C64 114.24 114.25 64.9 176 64.9C184.844 64.9 192 72.059 192 80.9C192 89.741 184.8 96.01 176 96.01Z" fill="#F9B128" />
</svg>
