<svg width="448" height="449" viewBox="0 0 448 449" fill="none" xmlns="http://www.w3.org/2000/svg">
  <path d="M416 96.1H357.77L367.559 37.36C370.465 19.92 358.684 3.44 341.259 0.529998C323.729 -2.345 307.339 9.421 304.429 26.83L292.9 96.1H197.8L207.589 37.36C210.495 19.92 198.714 3.44 181.289 0.529998C163.759 -2.345 147.369 9.421 144.459 26.83L132.9 96.1H64C46.33 96.1 32 110.43 32 128.1C32 146.7 46.33 160.1 64 160.1H122.23L100.9 288.1H32C14.33 288.1 0 302.43 0 320.1C0 337.77 14.33 351.2 32 351.2H90.23L80.441 409.94C77.535 427.38 89.316 443.86 106.741 446.77C108.5 448.9 110.3 449 112 449C127.36 449 140.92 437.91 143.53 422.27L155.07 353H250.19L240.401 411.74C237.495 429.18 249.276 445.66 266.701 448.57C268.5 448.9 270.3 449 272 449C287.36 449 300.92 437.91 303.53 422.27L315.07 353H384C401.67 353 416 338.67 416 321.9C416 304.23 401.67 289.9 384 289.9H325.77L347.1 161.9H416C433.67 161.9 448 147.58 448 130.8C448 111.3 433.7 96.1 416 96.1ZM260.9 288.1H165.8L187.1 160.1H282.22L260.9 288.1Z" fill="#F9B128"/>
</svg>
